<?xml version="1.0" encoding="UTF-8" standalone="no"?>
<!DOCTYPE svg PUBLIC "-//W3C//DTD SVG 1.1//EN"
 "http://www.w3.org/Graphics/SVG/1.1/DTD/svg11.dtd">
<!-- Generated by graphviz version 2.50.0 (20211204.2007)
 -->
<!-- Pages: 1 -->
<svg width="1007pt" height="290pt"
 viewBox="0.00 0.00 1007.00 290.00" xmlns="http://www.w3.org/2000/svg" xmlns:xlink="http://www.w3.org/1999/xlink">
<g id="graph0" class="graph" transform="scale(1 1) rotate(0) translate(4 286)">
<polygon fill="white" stroke="transparent" points="-4,4 -4,-286 1003,-286 1003,4 -4,4"/>
<text text-anchor="middle" x="119.5" y="-266.8" font-family="Times,serif" font-size="14.00">C言語のコメント除去の状態遷移図</text>
<g id="node1" class="node">
<title></title>
<ellipse fill="black" stroke="black" cx="7" cy="-129" rx="7" ry="7"/>
</g>
<!-- S0 -->
<g id="node3" class="node">
<title>S0</title>
<ellipse fill="none" stroke="black" cx="94" cy="-129" rx="43" ry="43"/>
<text text-anchor="middle" x="94" y="-125.3" font-family="Times,serif" font-size="14.00">S0</text>
</g>
<!-- &#45;&gt;S0 -->
<g id="edge1" class="edge">
<title>&#45;&gt;S0</title>
<path fill="none" stroke="black" d="M14.11,-129C20.17,-129 30.1,-129 40.89,-129"/>
<polygon fill="black" stroke="black" points="40.97,-132.5 50.97,-129 40.97,-125.5 40.97,-132.5"/>
</g>
<!-- S4(OK) -->
<g id="node2" class="node">
<title>S4(OK)</title>
<ellipse fill="none" stroke="black" cx="952" cy="-176" rx="43" ry="43"/>
<ellipse fill="none" stroke="black" cx="952" cy="-176" rx="47" ry="47"/>
<text text-anchor="middle" x="952" y="-172.3" font-family="Times,serif" font-size="14.00">S4(OK)</text>
</g>
<!-- S0&#45;&gt;S4(OK) -->
<g id="edge3" class="edge">
<title>S0&#45;&gt;S4(OK)</title>
<path fill="none" stroke="black" d="M130.26,-152.27C184.68,-185.88 293.48,-244 395,-244 395,-244 395,-244 772,-244 818.54,-244 867.7,-223.67 902.71,-205.24"/>
<polygon fill="black" stroke="black" points="904.61,-208.19 911.74,-200.36 901.28,-202.03 904.61,-208.19"/>
<text text-anchor="middle" x="558" y="-247.8" font-family="Times,serif" font-size="14.00">EOF／－</text>
</g>
<!-- S0&#45;&gt;S0 -->
<g id="edge4" class="edge">
<title>S0&#45;&gt;S0</title>
<path fill="none" stroke="black" d="M82.85,-170.63C83.49,-181.65 87.2,-190 94,-190 98.46,-190 101.59,-186.4 103.4,-180.82"/>
<polygon fill="black" stroke="black" points="106.91,-181.07 105.15,-170.63 100.01,-179.89 106.91,-181.07"/>
<text text-anchor="middle" x="94" y="-193.8" font-family="Times,serif" font-size="14.00">その他／入力文字を出力</text>
</g>
<!-- S1 -->
<g id="node4" class="node">
<title>S1</title>
<ellipse fill="none" stroke="black" cx="396" cy="-129" rx="43" ry="43"/>
<text text-anchor="middle" x="396" y="-125.3" font-family="Times,serif" font-size="14.00">S1</text>
</g>
<!-- S0&#45;&gt;S1 -->
<g id="edge2" class="edge">
<title>S0&#45;&gt;S1</title>
<path fill="none" stroke="black" d="M137.03,-129C190.88,-129 284.23,-129 342.64,-129"/>
<polygon fill="black" stroke="black" points="342.77,-132.5 352.77,-129 342.77,-125.5 342.77,-132.5"/>
<text text-anchor="middle" x="245" y="-132.8" font-family="Times,serif" font-size="14.00">&#39;/&#39;／－</text>
</g>
<!-- S1&#45;&gt;S4(OK) -->
<g id="edge7" class="edge">
<title>S1&#45;&gt;S4(OK)</title>
<path fill="none" stroke="black" d="M434.02,-149.23C456.67,-160.44 486.65,-173.24 515,-179 649.23,-206.27 811.54,-193.49 895.17,-183.65"/>
<polygon fill="black" stroke="black" points="895.7,-187.11 905.21,-182.44 894.87,-180.16 895.7,-187.11"/>
<text text-anchor="middle" x="664.5" y="-198.8" font-family="Times,serif" font-size="14.00">EOF／&#39;/&#39;を出力</text>
</g>
<!-- S1&#45;&gt;S0 -->
<g id="edge8" class="edge">
<title>S1&#45;&gt;S0</title>
<path fill="none" stroke="black" d="M355.39,-114.59C348.67,-112.68 341.69,-111.03 335,-110 255.94,-97.78 234.06,-97.78 155,-110 151.55,-110.53 148.02,-111.23 144.5,-112.04"/>
<polygon fill="black" stroke="black" points="143.42,-108.7 134.61,-114.59 145.17,-115.48 143.42,-108.7"/>
<text text-anchor="middle" x="245" y="-113.8" font-family="Times,serif" font-size="14.00">その他／&#39;/&#39;と入力文字を出力</text>
</g>
<!-- S1&#45;&gt;S1 -->
<g id="edge5" class="edge">
<title>S1&#45;&gt;S1</title>
<path fill="none" stroke="black" d="M381.06,-169.48C381.64,-181.06 386.62,-190 396,-190 402.45,-190 406.81,-185.78 409.1,-179.37"/>
<polygon fill="black" stroke="black" points="412.56,-179.95 410.94,-169.48 405.68,-178.67 412.56,-179.95"/>
<text text-anchor="middle" x="396" y="-193.8" font-family="Times,serif" font-size="14.00">&#39;/&#39;／&#39;/&#39;を出力</text>
</g>
<!-- S2 -->
<g id="node5" class="node">
<title>S2</title>
<ellipse fill="none" stroke="black" cx="558" cy="-94" rx="43" ry="43"/>
<text text-anchor="middle" x="558" y="-90.3" font-family="Times,serif" font-size="14.00">S2</text>
</g>
<!-- S1&#45;&gt;S2 -->
<g id="edge6" class="edge">
<title>S1&#45;&gt;S2</title>
<path fill="none" stroke="black" d="M438.2,-119.99C458.92,-115.46 484.22,-109.92 506.13,-105.13"/>
<polygon fill="black" stroke="black" points="506.91,-108.54 515.94,-102.98 505.42,-101.7 506.91,-108.54"/>
<text text-anchor="middle" x="477" y="-118.8" font-family="Times,serif" font-size="14.00">&#39;*&#39;／－</text>
</g>
<!-- S2&#45;&gt;S4(OK) -->
<g id="edge10" class="edge">
<title>S2&#45;&gt;S4(OK)</title>
<path fill="none" stroke="black" d="M599.96,-103.71C606.33,-105.18 612.84,-106.65 619,-108 716.11,-129.27 829.65,-152.08 895.64,-165.14"/>
<polygon fill="black" stroke="black" points="895.32,-168.64 905.81,-167.15 896.68,-161.78 895.32,-168.64"/>
<text text-anchor="middle" x="771" y="-151.8" font-family="Times,serif" font-size="14.00">EOF／－</text>
</g>
<!-- S2&#45;&gt;S2 -->
<g id="edge11" class="edge">
<title>S2&#45;&gt;S2</title>
<path fill="none" stroke="black" d="M543.06,-134.48C543.64,-146.06 548.62,-155 558,-155 564.45,-155 568.81,-150.78 571.1,-144.37"/>
<polygon fill="black" stroke="black" points="574.56,-144.95 572.94,-134.48 567.68,-143.67 574.56,-144.95"/>
<text text-anchor="middle" x="558" y="-158.8" font-family="Times,serif" font-size="14.00">その他／－</text>
</g>
<!-- S3 -->
<g id="node6" class="node">
<title>S3</title>
<ellipse fill="none" stroke="black" cx="771" cy="-43" rx="43" ry="43"/>
<text text-anchor="middle" x="771" y="-39.3" font-family="Times,serif" font-size="14.00">S3</text>
</g>
<!-- S2&#45;&gt;S3 -->
<g id="edge9" class="edge">
<title>S2&#45;&gt;S3</title>
<path fill="none" stroke="black" d="M601.09,-91.33C631.81,-88.55 674.16,-82.99 710,-72 714.53,-70.61 719.15,-68.92 723.71,-67.07"/>
<polygon fill="black" stroke="black" points="725.16,-70.26 732.94,-63.07 722.38,-63.83 725.16,-70.26"/>
<text text-anchor="middle" x="664.5" y="-92.8" font-family="Times,serif" font-size="14.00">&#39;*&#39;／－</text>
</g>
<!-- S3&#45;&gt;S4(OK) -->
<g id="edge14" class="edge">
<title>S3&#45;&gt;S4(OK)</title>
<path fill="none" stroke="black" d="M806.47,-67.36C829.44,-83.72 860.22,-105.89 887,-126 893.34,-130.76 899.99,-135.85 906.49,-140.88"/>
<polygon fill="black" stroke="black" points="904.59,-143.83 914.63,-147.2 908.88,-138.3 904.59,-143.83"/>
<text text-anchor="middle" x="859.5" y="-129.8" font-family="Times,serif" font-size="14.00">EOF／－</text>
</g>
<!-- S3&#45;&gt;S0 -->
<g id="edge13" class="edge">
<title>S3&#45;&gt;S0</title>
<path fill="none" stroke="black" d="M728.08,-38.27C722.02,-37.74 715.86,-37.29 710,-37 669.61,-34.99 659.43,-36.03 619,-37 411.18,-41.99 351.94,-29.45 155,-96 150.06,-97.67 145.05,-99.74 140.14,-102.02"/>
<polygon fill="black" stroke="black" points="138.27,-99.03 130.86,-106.61 141.38,-105.31 138.27,-99.03"/>
<text text-anchor="middle" x="477" y="-43.8" font-family="Times,serif" font-size="14.00">&#39;/&#39;／－</text>
</g>
<!-- S3&#45;&gt;S2 -->
<g id="edge15" class="edge">
<title>S3&#45;&gt;S2</title>
<path fill="none" stroke="black" d="M727.81,-39.93C696.86,-39.07 654.26,-40.81 619,-53 612.67,-55.19 606.39,-58.23 600.4,-61.68"/>
<polygon fill="black" stroke="black" points="598.53,-58.73 591.88,-66.97 602.22,-64.67 598.53,-58.73"/>
<text text-anchor="middle" x="664.5" y="-56.8" font-family="Times,serif" font-size="14.00">その他／－</text>
</g>
<!-- S3&#45;&gt;S3 -->
<g id="edge12" class="edge">
<title>S3&#45;&gt;S3</title>
<path fill="none" stroke="black" d="M754.54,-82.89C755.03,-94.76 760.52,-104 771,-104 778.21,-104 783.05,-99.63 785.54,-93.05"/>
<polygon fill="black" stroke="black" points="789.04,-93.37 787.46,-82.89 782.16,-92.07 789.04,-93.37"/>
<text text-anchor="middle" x="771" y="-107.8" font-family="Times,serif" font-size="14.00">&#39;*&#39;／－</text>
</g>
</g>
</svg>
