<?xml version="1.0" encoding="UTF-8" standalone="no"?>
<!DOCTYPE svg PUBLIC "-//W3C//DTD SVG 1.1//EN"
 "http://www.w3.org/Graphics/SVG/1.1/DTD/svg11.dtd">
<!-- Generated by graphviz version 2.50.0 (20211204.2007)
 -->
<!-- Pages: 1 -->
<svg width="434pt" height="338pt"
 viewBox="0.00 0.00 433.50 338.00" xmlns="http://www.w3.org/2000/svg" xmlns:xlink="http://www.w3.org/1999/xlink">
<g id="graph0" class="graph" transform="scale(1 1) rotate(0) translate(4 334)">
<polygon fill="white" stroke="transparent" points="-4,4 -4,-334 429.5,-334 429.5,4 -4,4"/>
<!-- 整数 -->
<g id="node1" class="node">
<title>整数</title>
<polygon fill="none" stroke="black" points="214.5,-330 160.5,-330 160.5,-294 214.5,-294 214.5,-330"/>
<text text-anchor="middle" x="187.5" y="-308.3" font-family="Times,serif" font-size="14.00">整数</text>
</g>
<!-- 符号 -->
<g id="node2" class="node">
<title>符号</title>
<polygon fill="none" stroke="black" points="172.5,-258 118.5,-258 118.5,-222 172.5,-222 172.5,-258"/>
<text text-anchor="middle" x="145.5" y="-236.3" font-family="Times,serif" font-size="14.00">符号</text>
</g>
<!-- 整数&#45;&#45;符号 -->
<g id="edge1" class="edge">
<title>整数&#45;&#45;符号</title>
<path fill="none" stroke="black" d="M177.12,-293.7C170.61,-282.85 162.25,-268.92 155.76,-258.1"/>
</g>
<!-- 数値列 -->
<g id="node3" class="node">
<title>数値列</title>
<polygon fill="none" stroke="black" points="298,-258 239,-258 239,-222 298,-222 298,-258"/>
<text text-anchor="middle" x="268.5" y="-236.3" font-family="Times,serif" font-size="14.00">数値列</text>
</g>
<!-- 整数&#45;&#45;数値列 -->
<g id="edge2" class="edge">
<title>整数&#45;&#45;数値列</title>
<path fill="none" stroke="black" d="M207.52,-293.7C220.08,-282.85 236.2,-268.92 248.71,-258.1"/>
</g>
<!-- 　　⚪︎
＋ -->
<g id="node4" class="node">
<title>　　⚪︎
＋</title>
<polygon fill="none" stroke="black" points="59,-186 0,-186 0,-148 59,-148 59,-186"/>
<text text-anchor="middle" x="29.5" y="-170.8" font-family="Times,serif" font-size="14.00">　　⚪︎</text>
<text text-anchor="middle" x="29.5" y="-155.8" font-family="Times,serif" font-size="14.00">＋</text>
</g>
<!-- 符号&#45;&#45;　　⚪︎
＋ -->
<g id="edge3" class="edge">
<title>符号&#45;&#45;　　⚪︎
＋</title>
<path fill="none" stroke="black" d="M118.3,-222.35C100.49,-211.45 77.22,-197.21 58.97,-186.03"/>
</g>
<!-- 　　⚪︎
－ -->
<g id="node5" class="node">
<title>　　⚪︎
－</title>
<polygon fill="none" stroke="black" points="136,-186 77,-186 77,-148 136,-148 136,-186"/>
<text text-anchor="middle" x="106.5" y="-170.8" font-family="Times,serif" font-size="14.00">　　⚪︎</text>
<text text-anchor="middle" x="106.5" y="-155.8" font-family="Times,serif" font-size="14.00">－</text>
</g>
<!-- 符号&#45;&#45;　　⚪︎
－ -->
<g id="edge4" class="edge">
<title>符号&#45;&#45;　　⚪︎
－</title>
<path fill="none" stroke="black" d="M136.06,-221.81C130.11,-210.98 122.43,-197.01 116.4,-186.02"/>
</g>
<!-- 　　⚪︎
なし -->
<g id="node6" class="node">
<title>　　⚪︎
なし</title>
<polygon fill="none" stroke="black" points="213,-186 154,-186 154,-148 213,-148 213,-186"/>
<text text-anchor="middle" x="183.5" y="-170.8" font-family="Times,serif" font-size="14.00">　　⚪︎</text>
<text text-anchor="middle" x="183.5" y="-155.8" font-family="Times,serif" font-size="14.00">なし</text>
</g>
<!-- 符号&#45;&#45;　　⚪︎
なし -->
<g id="edge5" class="edge">
<title>符号&#45;&#45;　　⚪︎
なし</title>
<path fill="none" stroke="black" d="M154.7,-221.81C160.5,-210.98 167.97,-197.01 173.86,-186.02"/>
</g>
<!-- １文字目
の数値 -->
<g id="node7" class="node">
<title>１文字目
の数値</title>
<polygon fill="none" stroke="black" points="305.5,-186 231.5,-186 231.5,-148 305.5,-148 305.5,-186"/>
<text text-anchor="middle" x="268.5" y="-170.8" font-family="Times,serif" font-size="14.00">１文字目</text>
<text text-anchor="middle" x="268.5" y="-155.8" font-family="Times,serif" font-size="14.00">の数値</text>
</g>
<!-- 数値列&#45;&#45;１文字目
の数値 -->
<g id="edge6" class="edge">
<title>数値列&#45;&#45;１文字目
の数値</title>
<path fill="none" stroke="black" d="M268.5,-221.81C268.5,-210.98 268.5,-197.01 268.5,-186.02"/>
</g>
<!-- ２文字目
以降の数値列 -->
<g id="node8" class="node">
<title>２文字目
以降の数値列</title>
<polygon fill="none" stroke="black" points="425.5,-186 323.5,-186 323.5,-148 425.5,-148 425.5,-186"/>
<text text-anchor="middle" x="374.5" y="-170.8" font-family="Times,serif" font-size="14.00">２文字目</text>
<text text-anchor="middle" x="374.5" y="-155.8" font-family="Times,serif" font-size="14.00">以降の数値列</text>
</g>
<!-- 数値列&#45;&#45;２文字目
以降の数値列 -->
<g id="edge7" class="edge">
<title>数値列&#45;&#45;２文字目
以降の数値列</title>
<path fill="none" stroke="black" d="M293.89,-221.99C310.06,-211.16 330.99,-197.15 347.46,-186.11"/>
</g>
<!-- 　　⚪︎
０〜９  -->
<g id="node9" class="node">
<title>　　⚪︎
０〜９ </title>
<polygon fill="none" stroke="black" points="300.5,-112 236.5,-112 236.5,-74 300.5,-74 300.5,-112"/>
<text text-anchor="middle" x="268.5" y="-96.8" font-family="Times,serif" font-size="14.00">　　⚪︎</text>
<text text-anchor="middle" x="268.5" y="-81.8" font-family="Times,serif" font-size="14.00">０〜９ </text>
</g>
<!-- １文字目
の数値&#45;&#45;　　⚪︎
０〜９  -->
<g id="edge8" class="edge">
<title>１文字目
の数値&#45;&#45;　　⚪︎
０〜９ </title>
<path fill="none" stroke="black" d="M268.5,-147.83C268.5,-137 268.5,-123.29 268.5,-112.41"/>
</g>
<!-- 　　*
数値 -->
<g id="node10" class="node">
<title>　　*
数値</title>
<polygon fill="none" stroke="black" points="401.5,-112 347.5,-112 347.5,-74 401.5,-74 401.5,-112"/>
<text text-anchor="middle" x="374.5" y="-96.8" font-family="Times,serif" font-size="14.00">　　*</text>
<text text-anchor="middle" x="374.5" y="-81.8" font-family="Times,serif" font-size="14.00">数値</text>
</g>
<!-- ２文字目
以降の数値列&#45;&#45;　　*
数値 -->
<g id="edge9" class="edge">
<title>２文字目
以降の数値列&#45;&#45;　　*
数値</title>
<path fill="none" stroke="black" d="M374.5,-147.83C374.5,-137 374.5,-123.29 374.5,-112.41"/>
</g>
<!-- 　　⚪︎
０〜９ -->
<g id="node11" class="node">
<title>　　⚪︎
０〜９</title>
<polygon fill="none" stroke="black" points="404,-38 345,-38 345,0 404,0 404,-38"/>
<text text-anchor="middle" x="374.5" y="-22.8" font-family="Times,serif" font-size="14.00">　　⚪︎</text>
<text text-anchor="middle" x="374.5" y="-7.8" font-family="Times,serif" font-size="14.00">０〜９</text>
</g>
<!-- 　　*
数値&#45;&#45;　　⚪︎
０〜９ -->
<g id="edge10" class="edge">
<title>　　*
数値&#45;&#45;　　⚪︎
０〜９</title>
<path fill="none" stroke="black" d="M374.5,-73.83C374.5,-63 374.5,-49.29 374.5,-38.41"/>
</g>
</g>
</svg>
