<?xml version="1.0" encoding="UTF-8" standalone="no"?>
<!DOCTYPE svg PUBLIC "-//W3C//DTD SVG 1.1//EN"
 "http://www.w3.org/Graphics/SVG/1.1/DTD/svg11.dtd">
<!-- Generated by graphviz version 2.50.0 (20211204.2007)
 -->
<!-- Pages: 1 -->
<svg width="1921pt" height="280pt"
 viewBox="0.00 0.00 1921.00 280.00" xmlns="http://www.w3.org/2000/svg" xmlns:xlink="http://www.w3.org/1999/xlink">
<g id="graph0" class="graph" transform="scale(1 1) rotate(0) translate(4 276)">
<polygon fill="white" stroke="transparent" points="-4,4 -4,-276 1917,-276 1917,4 -4,4"/>
<text text-anchor="middle" x="108" y="-256.8" font-family="Times,serif" font-size="14.00">浮動小数点数判定の状態遷移図</text>
<g id="node1" class="node">
<title></title>
<ellipse fill="black" stroke="black" cx="7" cy="-118" rx="7" ry="7"/>
</g>
<!-- S0 -->
<g id="node3" class="node">
<title>S0</title>
<ellipse fill="none" stroke="black" cx="94" cy="-118" rx="43" ry="43"/>
<text text-anchor="middle" x="94" y="-114.3" font-family="Times,serif" font-size="14.00">S0</text>
</g>
<!-- &#45;&gt;S0 -->
<g id="edge1" class="edge">
<title>&#45;&gt;S0</title>
<path fill="none" stroke="black" d="M14.11,-118C20.17,-118 30.1,-118 40.89,-118"/>
<polygon fill="black" stroke="black" points="40.97,-121.5 50.97,-118 40.97,-114.5 40.97,-121.5"/>
</g>
<!-- S8(OK) -->
<g id="node2" class="node">
<title>S8(OK)</title>
<ellipse fill="none" stroke="black" cx="1866" cy="-118" rx="43" ry="43"/>
<ellipse fill="none" stroke="black" cx="1866" cy="-118" rx="47" ry="47"/>
<text text-anchor="middle" x="1866" y="-114.3" font-family="Times,serif" font-size="14.00">S8(OK)</text>
</g>
<!-- S1 -->
<g id="node4" class="node">
<title>S1</title>
<ellipse fill="none" stroke="black" cx="355.5" cy="-118" rx="43" ry="43"/>
<text text-anchor="middle" x="355.5" y="-114.3" font-family="Times,serif" font-size="14.00">S1</text>
</g>
<!-- S0&#45;&gt;S1 -->
<g id="edge2" class="edge">
<title>S0&#45;&gt;S1</title>
<path fill="none" stroke="black" d="M137.27,-118C182.23,-118 253.41,-118 301.95,-118"/>
<polygon fill="black" stroke="black" points="302.25,-121.5 312.25,-118 302.25,-114.5 302.25,-121.5"/>
<text text-anchor="middle" x="214" y="-121.8" font-family="Times,serif" font-size="14.00">＋|－／次の文字へ</text>
</g>
<!-- S2 -->
<g id="node5" class="node">
<title>S2</title>
<ellipse fill="none" stroke="black" cx="628" cy="-43" rx="43" ry="43"/>
<text text-anchor="middle" x="628" y="-39.3" font-family="Times,serif" font-size="14.00">S2</text>
</g>
<!-- S0&#45;&gt;S2 -->
<g id="edge3" class="edge">
<title>S0&#45;&gt;S2</title>
<path fill="none" stroke="black" d="M133.48,-100.91C172.35,-84.61 234.53,-61.08 291,-51 390.1,-33.32 508.23,-35.83 574.73,-39.36"/>
<polygon fill="black" stroke="black" points="574.77,-42.86 584.95,-39.93 575.16,-35.87 574.77,-42.86"/>
<text text-anchor="middle" x="355.5" y="-54.8" font-family="Times,serif" font-size="14.00">小数点／次の文字へ</text>
</g>
<!-- S3 -->
<g id="node6" class="node">
<title>S3</title>
<ellipse fill="none" stroke="black" cx="628" cy="-155" rx="43" ry="43"/>
<text text-anchor="middle" x="628" y="-151.3" font-family="Times,serif" font-size="14.00">S3</text>
</g>
<!-- S0&#45;&gt;S3 -->
<g id="edge4" class="edge">
<title>S0&#45;&gt;S3</title>
<path fill="none" stroke="black" d="M134.9,-132.12C174.05,-145.14 235.77,-163.4 291,-170 412.82,-184.57 444.92,-177.2 567,-165 569.71,-164.73 572.49,-164.41 575.29,-164.06"/>
<polygon fill="black" stroke="black" points="576.03,-167.49 585.46,-162.65 575.07,-160.55 576.03,-167.49"/>
<text text-anchor="middle" x="355.5" y="-181.8" font-family="Times,serif" font-size="14.00">０～９／次の文字へ</text>
</g>
<!-- S1&#45;&gt;S2 -->
<g id="edge5" class="edge">
<title>S1&#45;&gt;S2</title>
<path fill="none" stroke="black" d="M397.29,-106.69C445.26,-93.39 524.91,-71.31 576.68,-56.95"/>
<polygon fill="black" stroke="black" points="577.62,-60.32 586.32,-54.28 575.75,-53.58 577.62,-60.32"/>
<text text-anchor="middle" x="502.5" y="-96.8" font-family="Times,serif" font-size="14.00">小数点／次の文字へ</text>
</g>
<!-- S1&#45;&gt;S3 -->
<g id="edge6" class="edge">
<title>S1&#45;&gt;S3</title>
<path fill="none" stroke="black" d="M398.17,-123.7C445.83,-130.22 523.88,-140.9 575.36,-147.94"/>
<polygon fill="black" stroke="black" points="574.9,-151.41 585.28,-149.29 575.85,-144.47 574.9,-151.41"/>
<text text-anchor="middle" x="502.5" y="-149.8" font-family="Times,serif" font-size="14.00">０～９／次の文字へ</text>
</g>
<!-- S4 -->
<g id="node7" class="node">
<title>S4</title>
<ellipse fill="none" stroke="black" cx="895" cy="-43" rx="43" ry="43"/>
<text text-anchor="middle" x="895" y="-39.3" font-family="Times,serif" font-size="14.00">S4</text>
</g>
<!-- S2&#45;&gt;S4 -->
<g id="edge7" class="edge">
<title>S2&#45;&gt;S4</title>
<path fill="none" stroke="black" d="M671.28,-43C717.53,-43 791.7,-43 841.61,-43"/>
<polygon fill="black" stroke="black" points="841.87,-46.5 851.87,-43 841.87,-39.5 841.87,-46.5"/>
<text text-anchor="middle" x="753.5" y="-46.8" font-family="Times,serif" font-size="14.00">０～９／次の文字へ</text>
</g>
<!-- S3&#45;&gt;S8(OK) -->
<g id="edge11" class="edge">
<title>S3&#45;&gt;S8(OK)</title>
<path fill="none" stroke="black" d="M667,-173.92C717.53,-197.29 810.23,-234 894,-234 894,-234 894,-234 1686,-234 1741.77,-234 1793.88,-193.85 1827.32,-160.79"/>
<polygon fill="black" stroke="black" points="1830.05,-163.01 1834.59,-153.43 1825.07,-158.09 1830.05,-163.01"/>
<text text-anchor="middle" x="1271" y="-237.8" font-family="Times,serif" font-size="14.00">EOS／－</text>
</g>
<!-- S3&#45;&gt;S3 -->
<g id="edge8" class="edge">
<title>S3&#45;&gt;S3</title>
<path fill="none" stroke="black" d="M604.8,-191.32C604.04,-204.86 611.77,-216 628,-216 639.92,-216 647.25,-209.99 650.01,-201.44"/>
<polygon fill="black" stroke="black" points="653.5,-201.66 651.2,-191.32 646.55,-200.84 653.5,-201.66"/>
<text text-anchor="middle" x="628" y="-219.8" font-family="Times,serif" font-size="14.00">０～９／次の文字へ</text>
</g>
<!-- S3&#45;&gt;S4 -->
<g id="edge9" class="edge">
<title>S3&#45;&gt;S4</title>
<path fill="none" stroke="black" d="M666.91,-136.21C674.2,-132.73 681.81,-129.19 689,-126 741.75,-102.6 803.22,-78.07 844.99,-61.8"/>
<polygon fill="black" stroke="black" points="846.32,-65.04 854.38,-58.15 843.79,-58.51 846.32,-65.04"/>
<text text-anchor="middle" x="753.5" y="-129.8" font-family="Times,serif" font-size="14.00">小数点／次の文字へ</text>
</g>
<!-- S5 -->
<g id="node8" class="node">
<title>S5</title>
<ellipse fill="none" stroke="black" cx="1151" cy="-138" rx="43" ry="43"/>
<text text-anchor="middle" x="1151" y="-134.3" font-family="Times,serif" font-size="14.00">S5</text>
</g>
<!-- S3&#45;&gt;S5 -->
<g id="edge10" class="edge">
<title>S3&#45;&gt;S5</title>
<path fill="none" stroke="black" d="M671.19,-153.62C765.7,-150.54 994.15,-143.09 1097.57,-139.71"/>
<polygon fill="black" stroke="black" points="1097.9,-143.2 1107.78,-139.38 1097.67,-136.21 1097.9,-143.2"/>
<text text-anchor="middle" x="895" y="-151.8" font-family="Times,serif" font-size="14.00">Ｅ|ｅ／次の文字へ</text>
</g>
<!-- S4&#45;&gt;S8(OK) -->
<g id="edge14" class="edge">
<title>S4&#45;&gt;S8(OK)</title>
<path fill="none" stroke="black" d="M938.24,-41.12C988.63,-39.05 1075.45,-36 1150,-36 1150,-36 1150,-36 1686,-36 1734.84,-36 1784.93,-61.55 1819.65,-84.12"/>
<polygon fill="black" stroke="black" points="1817.88,-87.15 1828.14,-89.78 1821.76,-81.32 1817.88,-87.15"/>
<text text-anchor="middle" x="1412.5" y="-39.8" font-family="Times,serif" font-size="14.00">EOS／－</text>
</g>
<!-- S4&#45;&gt;S4 -->
<g id="edge12" class="edge">
<title>S4&#45;&gt;S4</title>
<path fill="none" stroke="black" d="M869.69,-77.8C868.1,-92.01 876.54,-104 895,-104 908.85,-104 917.05,-97.26 919.62,-87.89"/>
<polygon fill="black" stroke="black" points="923.12,-88.01 920.31,-77.8 916.14,-87.54 923.12,-88.01"/>
<text text-anchor="middle" x="895" y="-107.8" font-family="Times,serif" font-size="14.00">０～９／次の文字へ</text>
</g>
<!-- S4&#45;&gt;S5 -->
<g id="edge13" class="edge">
<title>S4&#45;&gt;S5</title>
<path fill="none" stroke="black" d="M935.41,-57.74C979.99,-74.41 1052.66,-101.59 1100.89,-119.63"/>
<polygon fill="black" stroke="black" points="1099.91,-123 1110.5,-123.23 1102.36,-116.44 1099.91,-123"/>
<text text-anchor="middle" x="1031" y="-118.8" font-family="Times,serif" font-size="14.00">Ｅ|ｅ／次の文字へ</text>
</g>
<!-- S6 -->
<g id="node9" class="node">
<title>S6</title>
<ellipse fill="none" stroke="black" cx="1412.5" cy="-163" rx="43" ry="43"/>
<text text-anchor="middle" x="1412.5" y="-159.3" font-family="Times,serif" font-size="14.00">S6</text>
</g>
<!-- S5&#45;&gt;S6 -->
<g id="edge15" class="edge">
<title>S5&#45;&gt;S6</title>
<path fill="none" stroke="black" d="M1193.98,-142.04C1239.11,-146.39 1310.91,-153.31 1359.57,-158"/>
<polygon fill="black" stroke="black" points="1359.29,-161.49 1369.58,-158.96 1359.96,-154.52 1359.29,-161.49"/>
<text text-anchor="middle" x="1271" y="-157.8" font-family="Times,serif" font-size="14.00">＋|－／次の文字へ</text>
</g>
<!-- S7 -->
<g id="node10" class="node">
<title>S7</title>
<ellipse fill="none" stroke="black" cx="1685" cy="-118" rx="43" ry="43"/>
<text text-anchor="middle" x="1685" y="-114.3" font-family="Times,serif" font-size="14.00">S7</text>
</g>
<!-- S5&#45;&gt;S7 -->
<g id="edge16" class="edge">
<title>S5&#45;&gt;S7</title>
<path fill="none" stroke="black" d="M1192.51,-126.7C1231.87,-116.34 1293.49,-101.77 1348,-96 1448.43,-85.36 1566.33,-99.1 1632.38,-109.16"/>
<polygon fill="black" stroke="black" points="1632.11,-112.66 1642.53,-110.74 1633.18,-105.74 1632.11,-112.66"/>
<text text-anchor="middle" x="1412.5" y="-99.8" font-family="Times,serif" font-size="14.00">０～９／次の文字へ</text>
</g>
<!-- S6&#45;&gt;S7 -->
<g id="edge17" class="edge">
<title>S6&#45;&gt;S7</title>
<path fill="none" stroke="black" d="M1455.17,-156.07C1502.83,-148.14 1580.88,-135.15 1632.36,-126.59"/>
<polygon fill="black" stroke="black" points="1632.99,-130.03 1642.28,-124.94 1631.84,-123.13 1632.99,-130.03"/>
<text text-anchor="middle" x="1559.5" y="-151.8" font-family="Times,serif" font-size="14.00">０～９／次の文字へ</text>
</g>
<!-- S7&#45;&gt;S8(OK) -->
<g id="edge19" class="edge">
<title>S7&#45;&gt;S8(OK)</title>
<path fill="none" stroke="black" d="M1728.42,-118C1752.42,-118 1782.74,-118 1808.72,-118"/>
<polygon fill="black" stroke="black" points="1808.8,-121.5 1818.8,-118 1808.8,-114.5 1808.8,-121.5"/>
<text text-anchor="middle" x="1773.5" y="-121.8" font-family="Times,serif" font-size="14.00">EOS／－</text>
</g>
<!-- S7&#45;&gt;S7 -->
<g id="edge18" class="edge">
<title>S7&#45;&gt;S7</title>
<path fill="none" stroke="black" d="M1668.54,-157.89C1669.03,-169.76 1674.52,-179 1685,-179 1692.21,-179 1697.05,-174.63 1699.54,-168.05"/>
<polygon fill="black" stroke="black" points="1703.04,-168.37 1701.46,-157.89 1696.16,-167.07 1703.04,-168.37"/>
<text text-anchor="middle" x="1685" y="-182.8" font-family="Times,serif" font-size="14.00">０～９／次の文字へ</text>
</g>
</g>
</svg>
