<?xml version="1.0" encoding="UTF-8" standalone="no"?>
<!DOCTYPE svg PUBLIC "-//W3C//DTD SVG 1.1//EN"
 "http://www.w3.org/Graphics/SVG/1.1/DTD/svg11.dtd">
<!-- Generated by graphviz version 2.50.0 (20211204.2007)
 -->
<!-- Pages: 1 -->
<svg width="221pt" height="144pt"
 viewBox="0.00 0.00 221.00 144.00" xmlns="http://www.w3.org/2000/svg" xmlns:xlink="http://www.w3.org/1999/xlink">
<g id="graph0" class="graph" transform="scale(1 1) rotate(0) translate(4 140)">
<polygon fill="white" stroke="transparent" points="-4,4 -4,-140 217,-140 217,4 -4,4"/>
<text text-anchor="middle" x="22.5" y="-120.8" font-family="Times,serif" font-size="14.00">選択</text>
<!-- 
A -->
<g id="node1" class="node">
<title>
A</title>
<polygon fill="none" stroke="black" points="133.5,-113 79.5,-113 79.5,-74 133.5,-74 133.5,-113"/>
<text text-anchor="middle" x="106.5" y="-81.8" font-family="Times,serif" font-size="14.00">A</text>
</g>
<!-- 　　⚪︎
B -->
<g id="node2" class="node">
<title>　　⚪︎
B</title>
<polygon fill="none" stroke="black" points="59,-38 0,-38 0,0 59,0 59,-38"/>
<text text-anchor="middle" x="29.5" y="-22.8" font-family="Times,serif" font-size="14.00">　　⚪︎</text>
<text text-anchor="middle" x="29.5" y="-7.8" font-family="Times,serif" font-size="14.00">B</text>
</g>
<!-- 
A&#45;&#45;　　⚪︎
B -->
<g id="edge1" class="edge">
<title>
A&#45;&#45;　　⚪︎
B</title>
<path fill="none" stroke="black" d="M86.67,-73.83C75,-62.84 60.3,-49 48.73,-38.11"/>
</g>
<!-- 　　⚪︎
C -->
<g id="node3" class="node">
<title>　　⚪︎
C</title>
<polygon fill="none" stroke="black" points="136,-38 77,-38 77,0 136,0 136,-38"/>
<text text-anchor="middle" x="106.5" y="-22.8" font-family="Times,serif" font-size="14.00">　　⚪︎</text>
<text text-anchor="middle" x="106.5" y="-7.8" font-family="Times,serif" font-size="14.00">C</text>
</g>
<!-- 
A&#45;&#45;　　⚪︎
C -->
<g id="edge2" class="edge">
<title>
A&#45;&#45;　　⚪︎
C</title>
<path fill="none" stroke="black" d="M106.5,-73.83C106.5,-62.92 106.5,-49.21 106.5,-38.36"/>
</g>
<!-- 　　⚪︎
D -->
<g id="node4" class="node">
<title>　　⚪︎
D</title>
<polygon fill="none" stroke="black" points="213,-38 154,-38 154,0 213,0 213,-38"/>
<text text-anchor="middle" x="183.5" y="-22.8" font-family="Times,serif" font-size="14.00">　　⚪︎</text>
<text text-anchor="middle" x="183.5" y="-7.8" font-family="Times,serif" font-size="14.00">D</text>
</g>
<!-- 
A&#45;&#45;　　⚪︎
D -->
<g id="edge3" class="edge">
<title>
A&#45;&#45;　　⚪︎
D</title>
<path fill="none" stroke="black" d="M126.33,-73.83C138,-62.84 152.7,-49 164.27,-38.11"/>
</g>
</g>
</svg>
